<svg width="24" height="24" viewBox="0 0 24 24" fill="none" xmlns="http://www.w3.org/2000/svg">
<path d="M12.0469 3C14.3289 2.99996 16.5271 3.86214 18.2002 5.41406C19.8731 6.9659 20.8981 9.09274 21.0693 11.3682C20.7056 11.218 20.318 11.1426 19.9316 11.1426H19.9297C19.5396 11.1424 19.1533 11.2189 18.793 11.3682C18.4325 11.5175 18.1048 11.7366 17.8291 12.0127L14.6328 15.208L15.2324 12.0918H16.623C16.8307 12.0915 17 11.9091 17 11.6846C16.9996 11.4604 16.8304 11.2796 16.623 11.2793H15.3887L15.7324 9.48926C15.7744 9.26945 15.6427 9.05362 15.4395 9.00781C15.2361 8.96245 15.0364 9.10442 14.9941 9.32422L13.9971 14.5215L12.2119 11.4668C12.1412 11.3464 12.0166 11.2761 11.8848 11.2793C11.7856 11.2818 11.6918 11.3258 11.624 11.4004L11.5654 11.4844L9.97656 14.5029L8.78906 9.30859C8.73893 9.09094 8.5345 8.95808 8.33301 9.01172C8.13167 9.06599 8.00788 9.28704 8.05762 9.50488L8.46387 11.2793H7.37598C7.16847 11.2795 7.00041 11.4603 7 11.6846C7 11.9092 7.16822 12.0916 7.37598 12.0918H8.65039L9.47363 15.6904C9.51083 15.8514 9.63506 15.9731 9.78711 15.9961C9.93942 16.0187 10.0908 15.9383 10.167 15.7939L11.9102 12.4746L13.8574 15.8096C13.8791 15.8466 13.9063 15.8784 13.9365 15.9053L12.4893 17.3535C12.0615 17.7805 11.7588 18.3162 11.6123 18.9023L11.1973 20.5576C11.1556 20.7179 11.1364 20.8833 11.1396 21.0488C6.56909 20.5937 3 16.7369 3 12.0469C3.00014 7.05035 7.05036 3.00016 12.0469 3Z" fill="#C9CDD1"/>
<path d="M21.0809 12.3955C20.7408 12.1682 20.3405 12.0468 19.9315 12.0469H19.9295C19.4004 12.0469 18.8711 12.249 18.4686 12.6533L13.1288 17.9932C12.8179 18.3047 12.5967 18.6944 12.4891 19.1211L12.075 20.7773C12.0338 20.9422 12.0365 21.1156 12.0819 21.2793C12.1273 21.4428 12.2138 21.592 12.3338 21.7119C12.454 21.832 12.6037 21.9186 12.7674 21.9639C12.9311 22.0091 13.1037 22.011 13.2684 21.9697L14.9237 21.5566C15.3508 21.4491 15.7418 21.2281 16.0536 20.917L21.3924 15.5771C21.6819 15.2881 21.8798 14.9197 21.9598 14.5186C22.0397 14.1177 21.9989 13.702 21.8426 13.3242C21.6862 12.9463 21.4209 12.6228 21.0809 12.3955Z" fill="#70777E"/>
</svg>
