<svg width="78" height="38" viewBox="0 0 78 38" fill="none" xmlns="http://www.w3.org/2000/svg">
<g filter="url(#filter0_d_3305_40176)">
<path d="M6 0H72V24C72 28.4183 68.4183 32 64 32H14C9.58172 32 6 28.4183 6 24V0Z" fill="#FF293E"/>
<path d="M17.8577 9.43299C17.5313 7.77174 18.6712 7.14144 19.3541 7.01976C20.7364 6.74818 21.3457 7.82372 21.58 8.41369C21.8718 9.14766 22.0909 10.996 22.1911 11.8449L22.194 11.8687C22.2865 11.8278 22.3833 11.7974 22.4826 11.7781L24.6926 11.3439C25.5863 11.1683 26.4567 11.7529 26.6323 12.6465C26.723 13.1083 26.6567 13.555 26.4248 13.907C27.0747 14.0536 27.5966 14.5263 27.7222 15.1656C27.8373 15.7517 27.6731 16.3176 27.213 16.7043C27.7419 16.9044 28.1481 17.3333 28.2568 17.8866C28.3814 18.5208 28.1786 19.133 27.6265 19.5175C27.8847 19.6964 28.0771 20.0001 28.171 20.4779C28.3263 21.2684 27.8975 22.0202 26.8314 22.2297L24.6214 22.6639C24.5954 22.669 24.5697 22.6734 24.5443 22.6772L22.7507 23.0296C16.7907 24.303 15.6804 20.4956 15.3708 18.9203C14.7905 15.9667 15.9344 14.8299 16.9508 13.8199C17.4317 13.3423 17.8842 12.8928 18.1126 12.2928C18.304 11.7894 18.2388 11.3756 17.8573 9.43368" fill="#FFDECC"/>
<path d="M22.3033 11.811C21.7225 11.9435 20.0788 12.6014 20.3461 13.9619C20.4867 14.678 20.8345 15.0279 21.2005 15.1886C20.9067 15.3951 20.7247 15.983 20.8541 16.6417C20.9982 17.375 21.7121 17.7928 21.7121 17.7928C21.7121 17.7928 21.2199 18.5035 21.3588 19.2104C21.4637 19.7443 21.7749 20.0925 22.2022 20.2869C22.0219 20.4414 21.6943 20.918 21.8266 21.5911C21.9842 22.3937 22.8657 22.919 24.3451 22.6908C23.6042 22.6989 23.1277 22.1119 23.0056 21.4903C22.9653 21.2853 22.9772 20.9402 23.1108 20.6117L26.2895 19.9872C26.3655 19.9723 26.4324 19.9278 26.4756 19.8635C26.5187 19.7993 26.5346 19.7205 26.5197 19.6445C26.5048 19.5685 26.4603 19.5016 26.396 19.4585C26.3317 19.4153 26.2529 19.3994 26.177 19.4144L23.0773 20.0234C22.7857 19.7653 22.5937 19.3937 22.5186 19.0117C22.4718 18.7734 22.4861 18.3707 22.643 17.9913L25.7764 17.3756C25.8524 17.3607 25.9193 17.3162 25.9625 17.2519C26.0056 17.1877 26.0215 17.1089 26.0066 17.0329C25.9916 16.957 25.9471 16.89 25.8829 16.8469C25.8186 16.8037 25.7398 16.7878 25.6639 16.8028L22.6564 17.3937C22.3007 17.1363 22.0685 16.7209 21.984 16.2906C21.9438 16.0861 21.9486 15.7592 22.0506 15.4304L25.2699 14.7978C25.3459 14.7829 25.4128 14.7384 25.456 14.6741C25.4992 14.6099 25.515 14.5311 25.5001 14.4551C25.4852 14.3792 25.4407 14.3122 25.3764 14.2691C25.3121 14.2259 25.2334 14.2101 25.1574 14.225L22.1941 14.8072C21.8038 14.5287 21.5441 14.052 21.4669 13.659C21.3758 13.195 21.4281 12.1198 22.3055 11.8224L22.3033 11.811Z" fill="#FFAD81"/>
<path d="M33.1766 20V11.5156H36.5516C38.4266 11.5156 39.3641 12.418 39.3641 13.6953C39.3641 14.6914 38.7195 15.3125 37.8406 15.5117V15.5938C38.8016 15.6406 39.7039 16.4023 39.7039 17.6562C39.7039 19.0039 38.6961 20 36.7742 20H33.1766ZM36.4227 18.5469C37.4422 18.5469 37.8758 18.125 37.8758 17.4922C37.8758 16.7773 37.3367 16.2734 36.4695 16.2734H34.9344V18.5469H36.4227ZM36.2937 15.0664C37.032 15.0664 37.5828 14.6562 37.5828 13.9766C37.5828 13.3672 37.1375 12.9453 36.3289 12.9453H34.9344V15.0664H36.2937ZM40.5172 20V11.5156H46.2125V12.9688H42.275V15.0312H45.9195V16.4844H42.275V18.5469H46.2242V20H40.5172ZM51.8891 13.9414C51.8187 13.2734 51.2797 12.875 50.4242 12.875C49.5336 12.875 49.0414 13.2852 49.0297 13.8477C49.018 14.457 49.6625 14.7383 50.3891 14.9023L51.1508 15.0898C52.6039 15.418 53.6937 16.1562 53.6937 17.5742C53.6937 19.1328 52.475 20.1172 50.4125 20.1172C48.3617 20.1172 47.0492 19.168 47.0023 17.3516H48.7133C48.7719 18.207 49.4516 18.6406 50.3891 18.6406C51.3148 18.6406 51.9125 18.207 51.9125 17.5742C51.9125 17 51.3852 16.7305 50.4594 16.4961L49.5336 16.2734C48.1039 15.9219 47.225 15.207 47.225 13.9648C47.225 12.418 48.5844 11.3984 50.4359 11.3984C52.3109 11.3984 53.5531 12.4414 53.5766 13.9414H51.8891ZM54.2141 12.9688V11.5156H61.1633V12.9688H58.5617V20H56.8156V12.9688H54.2141Z" fill="white"/>
</g>
<defs>
<filter id="filter0_d_3305_40176" x="0" y="-6" width="78" height="44" filterUnits="userSpaceOnUse" color-interpolation-filters="sRGB">
<feFlood flood-opacity="0" result="BackgroundImageFix"/>
<feColorMatrix in="SourceAlpha" type="matrix" values="0 0 0 0 0 0 0 0 0 0 0 0 0 0 0 0 0 0 127 0" result="hardAlpha"/>
<feOffset/>
<feGaussianBlur stdDeviation="3"/>
<feComposite in2="hardAlpha" operator="out"/>
<feColorMatrix type="matrix" values="0 0 0 0 0 0 0 0 0 0 0 0 0 0 0 0 0 0 0.08 0"/>
<feBlend mode="normal" in2="BackgroundImageFix" result="effect1_dropShadow_3305_40176"/>
<feBlend mode="normal" in="SourceGraphic" in2="effect1_dropShadow_3305_40176" result="shape"/>
</filter>
</defs>
</svg>
