<svg width="66" height="32" viewBox="0 0 66 32" fill="none" xmlns="http://www.w3.org/2000/svg">
<path d="M0 0H66V24C66 28.4183 62.4183 32 58 32H8C3.58172 32 0 28.4183 0 24V0Z" fill="#70777E"/>
<path d="M11.8579 9.43299C11.5315 7.77174 12.6713 7.14144 13.3542 7.01976C14.7365 6.74818 15.3458 7.82372 15.5801 8.41369C15.8719 9.14766 16.0911 10.996 16.1912 11.8449L16.1941 11.8687C16.2866 11.8278 16.3834 11.7974 16.4827 11.7781L18.6927 11.3439C19.5864 11.1683 20.4568 11.7529 20.6324 12.6465C20.7231 13.1083 20.6568 13.555 20.4249 13.907C21.0748 14.0536 21.5967 14.5263 21.7223 15.1656C21.8374 15.7517 21.6732 16.3176 21.2131 16.7043C21.7421 16.9044 22.1482 17.3333 22.2569 17.8866C22.3815 18.5208 22.1787 19.133 21.6266 19.5175C21.8849 19.6964 22.0772 20.0001 22.1711 20.4779C22.3264 21.2684 21.8976 22.0202 20.8315 22.2297L18.6215 22.6639C18.5955 22.669 18.5698 22.6734 18.5444 22.6772L16.7508 23.0296C10.7909 24.303 9.68048 20.4956 9.37097 18.9203C8.79066 15.9667 9.93452 14.8299 10.951 13.8199C11.4319 13.3423 11.8844 12.8928 12.1127 12.2928C12.3042 11.7894 12.2389 11.3756 11.8574 9.43368" fill="#E9ECEF"/>
<path d="M16.304 11.811C15.7232 11.9435 14.0795 12.6014 14.3468 13.9619C14.4875 14.678 14.8353 15.0279 15.2012 15.1886C14.9074 15.3951 14.7254 15.983 14.8549 16.6417C14.9989 17.375 15.7129 17.7928 15.7129 17.7928C15.7129 17.7928 15.2207 18.5035 15.3595 19.2104C15.4644 19.7443 15.7756 20.0925 16.2029 20.2869C16.0226 20.4414 15.695 20.918 15.8273 21.5911C15.985 22.3937 16.8664 22.919 18.3458 22.6908C17.6049 22.6989 17.1284 22.1119 17.0063 21.4903C16.966 21.2853 16.978 20.9402 17.1116 20.6117L20.2903 19.9872C20.3662 19.9723 20.4331 19.9278 20.4763 19.8635C20.5195 19.7993 20.5353 19.7205 20.5204 19.6445C20.5055 19.5685 20.461 19.5016 20.3967 19.4585C20.3325 19.4153 20.2537 19.3994 20.1777 19.4144L17.0781 20.0234C16.7864 19.7653 16.5944 19.3937 16.5193 19.0117C16.4725 18.7734 16.4868 18.3707 16.6437 17.9913L19.7771 17.3756C19.8531 17.3607 19.92 17.3162 19.9632 17.2519C20.0064 17.1877 20.0222 17.1089 20.0073 17.0329C19.9924 16.957 19.9479 16.89 19.8836 16.8469C19.8193 16.8037 19.7406 16.7878 19.6646 16.8028L16.6572 17.3937C16.3014 17.1363 16.0692 16.7209 15.9847 16.2906C15.9445 16.0861 15.9493 15.7592 16.0513 15.4304L19.2707 14.7978C19.3466 14.7829 19.4136 14.7384 19.4567 14.6741C19.4999 14.6099 19.5157 14.5311 19.5008 14.4551C19.4859 14.3792 19.4414 14.3122 19.3771 14.2691C19.3129 14.2259 19.2341 14.2101 19.1581 14.225L16.1948 14.8072C15.8045 14.5287 15.5449 14.052 15.4677 13.659C15.3765 13.195 15.4288 12.1198 16.3063 11.8224L16.304 11.811Z" fill="#B6BBC0"/>
<path d="M27.1766 20V11.5156H30.5516C32.4266 11.5156 33.3641 12.418 33.3641 13.6953C33.3641 14.6914 32.7195 15.3125 31.8406 15.5117V15.5938C32.8016 15.6406 33.7039 16.4023 33.7039 17.6562C33.7039 19.0039 32.6961 20 30.7742 20H27.1766ZM30.4227 18.5469C31.4422 18.5469 31.8758 18.125 31.8758 17.4922C31.8758 16.7773 31.3367 16.2734 30.4695 16.2734H28.9344V18.5469H30.4227ZM30.2937 15.0664C31.032 15.0664 31.5828 14.6562 31.5828 13.9766C31.5828 13.3672 31.1375 12.9453 30.3289 12.9453H28.9344V15.0664H30.2937ZM34.5172 20V11.5156H40.2125V12.9688H36.275V15.0312H39.9195V16.4844H36.275V18.5469H40.2242V20H34.5172ZM45.8891 13.9414C45.8187 13.2734 45.2797 12.875 44.4242 12.875C43.5336 12.875 43.0414 13.2852 43.0297 13.8477C43.018 14.457 43.6625 14.7383 44.3891 14.9023L45.1508 15.0898C46.6039 15.418 47.6937 16.1562 47.6937 17.5742C47.6937 19.1328 46.475 20.1172 44.4125 20.1172C42.3617 20.1172 41.0492 19.168 41.0023 17.3516H42.7133C42.7719 18.207 43.4516 18.6406 44.3891 18.6406C45.3148 18.6406 45.9125 18.207 45.9125 17.5742C45.9125 17 45.3852 16.7305 44.4594 16.4961L43.5336 16.2734C42.1039 15.9219 41.225 15.207 41.225 13.9648C41.225 12.418 42.5844 11.3984 44.4359 11.3984C46.3109 11.3984 47.5531 12.4414 47.5766 13.9414H45.8891ZM48.2141 12.9688V11.5156H55.1633V12.9688H52.5617V20H50.8156V12.9688H48.2141Z" fill="white"/>
</svg>
