<svg width="53" height="39" viewBox="0 0 53 39" fill="none" xmlns="http://www.w3.org/2000/svg">
<path d="M52.6665 32.5437C52.6665 35.8116 50.0174 38.4607 46.7495 38.4607L5.91722 38.4607C2.64934 38.4607 0.000215872 35.8116 0.000208386 32.5437L0.000186662 5.91701C0.00018299 2.64913 2.64932 1.15797e-07 5.91719 2.58641e-07L46.7495 2.04348e-06C50.0173 2.18632e-06 52.6665 2.64913 52.6665 5.917L52.6665 32.5437Z" fill="#8FA2FF"/>
<path d="M45.714 22.1887C46.2859 22.1887 46.7495 22.6523 46.7495 23.2242L46.7495 27.0703C46.7495 27.6421 46.2859 28.1057 45.714 28.1057L38.9095 28.1057C38.3376 28.1057 37.874 27.6421 37.874 27.0703L37.874 23.2242C37.874 22.6523 38.3376 22.1887 38.9095 22.1887L45.714 22.1887Z" fill="#F8F9FA"/>
<path d="M6.80981 3.698C7.62678 3.698 8.28906 4.36028 8.28906 5.17725L8.28906 14.0528C8.28906 14.8697 7.62678 15.532 6.80981 15.532C5.99284 15.532 5.33056 14.8697 5.33056 14.0528L5.33056 5.17725C5.33056 4.36028 5.99284 3.698 6.80981 3.698Z" fill="#8FA2FF"/>
<path d="M6.80956 34.762C5.17563 34.762 3.85106 33.4374 3.85106 31.8035C3.85106 30.1695 5.17563 28.845 6.80956 28.845C8.4435 28.845 9.76807 30.1695 9.76807 31.8035C9.76807 33.4374 8.4435 34.762 6.80956 34.762Z" fill="#FFE485"/>
<path d="M6.80956 31.8035C5.17563 31.8035 3.85106 30.4789 3.85106 28.845C3.85106 27.211 5.17563 25.8865 6.80956 25.8865C8.4435 25.8865 9.76807 27.211 9.76807 28.845C9.76807 30.4789 8.4435 31.8035 6.80956 31.8035Z" fill="#FF4C5E"/>
</svg>
