<svg width="32" height="32" viewBox="0 0 32 32" fill="none" xmlns="http://www.w3.org/2000/svg">
<g clip-path="url(#clip0_2004_750)">
<path d="M0 0H32V32H0V0Z" fill="#EE1C25"/>
<path d="M12.8 8.43495L4.63995 13.715L7.99995 5.07495L10.88 13.715L3.19995 8.43495H12.8Z" fill="#FFFF00"/>
<path d="M14.7861 3.94052L17.6937 5.36459L14.6503 5.88752L16.6231 3.58288L16.4331 6.6816L14.7861 3.94052Z" fill="#FFFF00"/>
<path d="M18.4917 6.76298L20.6174 9.20786L17.6083 8.50483L20.3243 7.14861L18.9426 9.93106L18.4917 6.76298Z" fill="#FFFF00"/>
<path d="M19.161 11.4082L20.1036 14.5096L17.6425 12.6382L20.6772 12.5091L18.2785 14.4859L19.161 11.4082Z" fill="#FFFF00"/>
<path d="M16.6254 14.7269L16.2982 17.9485L14.7518 15.2749L17.5982 16.3261L14.6254 17.2229L16.6254 14.7269Z" fill="#FFFF00"/>
</g>
<defs>
<clipPath id="clip0_2004_750">
<rect width="32" height="32" rx="16" fill="white"/>
</clipPath>
</defs>
</svg>
