<svg width="20" height="22" viewBox="0 0 20 22" fill="none" xmlns="http://www.w3.org/2000/svg">
<path d="M15.5015 4.03533L12.0761 3.52782L10.4098 6.04067C9.23644 13.134 3.28846 16.8335 0.46114 17.7966C-0.0517433 17.9713 0.00976809 19.1094 1.27875 19.2619C13.0258 20.6735 17.0533 12.2721 17.5986 7.89499L17.2992 6.16318L15.5015 4.03533Z" fill="#9AA1A8"/>
<path d="M12.7787 3.78614C13.2755 3.86214 13.6166 4.32657 13.5406 4.82338L13.2531 6.70245C12.9701 8.55208 12.406 10.3287 11.2696 11.8152C10.9643 12.2145 10.3932 12.2907 9.99398 11.9855C9.59471 11.6803 9.51852 11.109 9.82376 10.7098C10.7746 9.46593 11.2173 7.97486 11.4541 6.42721L11.7416 4.54814C11.8176 4.05135 12.2819 3.71015 12.7787 3.78614Z" fill="#F1F3F5"/>
<path d="M9.68928 5.25999C10.9694 3.2288 13.1001 2.78677 14.1721 2.85548L14.4559 1.45268C14.5303 1.08517 14.8885 0.847539 15.256 0.921912C15.6235 0.996284 15.8612 1.3545 15.7868 1.72201L15.5029 3.1248C17.9581 4.18615 18.6675 6.10856 18.7244 7.59947C18.7499 8.26636 17.9923 8.51751 17.4882 8.08023L16.4649 7.19268C16.3666 7.10746 16.2304 7.08114 16.1074 7.12363L14.0739 7.82655C13.7553 7.93665 13.402 7.86169 13.1556 7.63173L11.6432 6.22001C11.5508 6.13378 11.4203 6.10164 11.2984 6.13511L10.6054 6.32542C9.91404 6.51528 9.30702 5.86653 9.68928 5.25999Z" fill="#C9CDD1"/>
</svg>
