<svg width="32" height="32" viewBox="0 0 32 32" fill="none" xmlns="http://www.w3.org/2000/svg">
<path d="M23.0938 4.44287H8.88516C6.92336 4.44287 5.33301 6.03322 5.33301 7.99502V25.7558C5.33301 27.7176 6.92336 29.3079 8.88516 29.3079H23.0938C25.0556 29.3079 26.6459 27.7176 26.6459 25.7558V7.99502C26.6459 6.03322 25.0556 4.44287 23.0938 4.44287Z" fill="white"/>
<path d="M23.9821 10.8804C24.3503 10.8804 24.6488 11.1788 24.6488 11.547C24.6488 11.9152 24.3503 12.2137 23.9821 12.2137H7.99772C7.62953 12.2137 7.33105 11.9152 7.33105 11.547C7.33105 11.1788 7.62953 10.8804 7.99772 10.8804H23.9821Z" fill="#B6BBC0"/>
<path d="M22.2061 16.2085C22.5742 16.2085 22.8727 16.507 22.8727 16.8752C22.8727 17.2434 22.5742 17.5418 22.2061 17.5418H7.99772C7.62953 17.5418 7.33105 17.2434 7.33105 16.8752C7.33105 16.507 7.62953 16.2085 7.99772 16.2085H22.2061Z" fill="#B6BBC0"/>
<path d="M20.43 21.5366C20.7982 21.5366 21.0967 21.8351 21.0967 22.2033C21.0967 22.5715 20.7982 22.87 20.43 22.87H7.99772C7.62953 22.87 7.33105 22.5715 7.33105 22.2033C7.33105 21.8351 7.62953 21.5366 7.99772 21.5366H20.43Z" fill="#B6BBC0"/>
<path d="M10.667 3.99984C10.667 3.26346 11.2639 2.6665 12.0003 2.6665H19.9901C20.7265 2.6665 21.3234 3.26346 21.3234 3.99984V4.88532C21.3234 5.6217 20.7265 6.21865 19.9901 6.21865H12.0003C11.2639 6.21865 10.667 5.6217 10.667 4.88532V3.99984Z" fill="#1C1917"/>
<path d="M12.2002 3.5C12.292 3.50028 12.3669 3.57479 12.3669 3.66667C12.3669 3.75854 12.292 3.83305 12.2002 3.83333H11.9997C11.9076 3.83333 11.833 3.75871 11.833 3.66667C11.833 3.57462 11.9076 3.5 11.9997 3.5H12.2002Z" fill="white"/>
<path d="M16.0003 3.5C16.0924 3.5 16.167 3.57462 16.167 3.66667C16.167 3.75871 16.0924 3.83333 16.0003 3.83333H13.3337C13.2416 3.83333 13.167 3.75871 13.167 3.66667C13.167 3.57462 13.2416 3.5 13.3337 3.5H16.0003Z" fill="white"/>
</svg>
