<svg width="32" height="32" viewBox="0 0 32 32" fill="none" xmlns="http://www.w3.org/2000/svg">
<g clip-path="url(#clip0_2004_857)">
<path fill-rule="evenodd" clip-rule="evenodd" d="M0 0H32V32H0V0Z" fill="white"/>
<path fill-rule="evenodd" clip-rule="evenodd" d="M3.30371 11.2098L6.69873 6.11923L7.54716 6.68506L4.15215 11.7757L3.30371 11.2098ZM4.57636 12.0586L7.97138 6.96798L8.81982 7.53382L5.4248 12.6244L4.57636 12.0586ZM5.84902 12.9073L9.24403 7.81674L10.0925 8.38257L6.69745 13.4732L5.84902 12.9073Z" fill="black"/>
<path fill-rule="evenodd" clip-rule="evenodd" d="M21.9692 23.6582L25.3643 18.5676L26.2127 19.1334L22.8177 24.224L21.9692 23.6582ZM23.2419 24.507L26.6369 19.4163L27.4853 19.9822L24.0903 25.0728L23.2419 24.507ZM24.5145 25.3557L27.9096 20.2651L28.758 20.8309L25.363 25.9215L24.5145 25.3557Z" fill="black"/>
<path fill-rule="evenodd" clip-rule="evenodd" d="M27.3215 23.9029L23.0793 21.0737L23.4044 20.5863L27.6466 23.4154L27.3215 23.9029Z" fill="white"/>
<path fill-rule="evenodd" clip-rule="evenodd" d="M10.9399 12.6254C11.8404 11.2753 13.2402 10.3381 14.8316 10.0201C16.4229 9.70215 18.0755 10.0294 19.4256 10.9298C20.7757 11.8302 21.7128 13.2301 22.0308 14.8214C22.3488 16.4128 22.0216 18.0653 21.1212 19.4154L10.9399 12.6254Z" fill="#CD2E3A"/>
<path fill-rule="evenodd" clip-rule="evenodd" d="M10.9399 12.6253C10.0395 13.9754 9.71232 15.6279 10.0303 17.2193C10.3483 18.8107 11.2854 20.2105 12.6355 21.111C13.9856 22.0114 15.6382 22.3386 17.2295 22.0206C18.8209 21.7026 20.2207 20.7655 21.1212 19.4154C21.5714 18.7403 21.735 17.9141 21.576 17.1184C21.417 16.3227 20.9484 15.6228 20.2734 15.1725C19.5983 14.7223 18.7721 14.5587 17.9764 14.7177C17.1807 14.8767 16.4808 15.3453 16.0305 16.0203L10.9399 12.6253Z" fill="#0047A0"/>
<path d="M16.0306 16.0204C16.9681 14.6146 16.5885 12.7151 15.1828 11.7776C13.777 10.84 11.8774 11.2196 10.9399 12.6253C10.0024 14.0311 10.382 15.9307 11.7877 16.8682C13.1935 17.8057 15.093 17.4261 16.0306 16.0204Z" fill="#CD2E3A"/>
<path fill-rule="evenodd" clip-rule="evenodd" d="M6.69934 25.9215L3.30432 20.8309L4.15276 20.2651L7.54778 25.3557L6.69934 25.9215ZM7.97199 25.0728L4.57698 19.9821L5.42541 19.4163L8.82043 24.5069L7.97199 25.0728ZM9.24465 24.224L5.84963 19.1334L6.69807 18.5676L10.0931 23.6582L9.24465 24.224Z" fill="black"/>
<path fill-rule="evenodd" clip-rule="evenodd" d="M25.3651 13.4731L21.9701 8.38253L22.8185 7.8167L26.2135 12.9073L25.3651 13.4731ZM26.6378 12.6244L23.2427 7.53378L24.0912 6.96794L27.4862 12.0586L26.6378 12.6244ZM27.9104 11.7756L24.5154 6.68502L25.3638 6.11919L28.7589 11.2098L27.9104 11.7756Z" fill="black"/>
<path fill-rule="evenodd" clip-rule="evenodd" d="M7.49836 22.0641L6.22571 22.9128L5.9006 22.4254L7.17326 21.5766L7.49836 22.0641ZM24.8913 10.4644L23.4065 11.4547L23.0814 10.9672L24.5662 9.97698L24.8913 10.4644ZM27.4366 8.76694L26.1639 9.6157L25.8388 9.12822L27.1115 8.27947L27.4366 8.76694Z" fill="white"/>
</g>
<defs>
<clipPath id="clip0_2004_857">
<rect width="32" height="32" rx="16" fill="white"/>
</clipPath>
</defs>
</svg>
