<svg width="47" height="32" viewBox="0 0 47 32" fill="none" xmlns="http://www.w3.org/2000/svg">
<path d="M0 0H47V24C47 28.4183 43.4183 32 39 32H8C3.58172 32 0 28.4183 0 24V0Z" fill="#E9ECEF"/>
<path d="M17.8117 11.5156V20H16.2883L12.5617 14.6094H12.4914V20H10.7336V11.5156H12.2805L15.9836 16.9062H16.0656V11.5156H17.8117ZM18.9414 20V11.5156H24.6367V12.9688H20.6992V15.0312H24.3438V16.4844H20.6992V18.5469H24.6484V20H18.9414ZM27.6062 20L25.1805 11.5156H27.1023L28.532 17.4453H28.6023L30.1609 11.5156H31.8133L33.3719 17.457H33.4422L34.8719 11.5156H36.7937L34.368 20H32.6453L31.0281 14.3984H30.9578L29.3289 20H27.6062Z" fill="#70777E"/>
</svg>
