<svg width="59" height="38" viewBox="0 0 59 38" fill="none" xmlns="http://www.w3.org/2000/svg">
<g filter="url(#filter0_d_3305_40170)">
<path d="M6 0H53V24C53 28.4183 49.4183 32 45 32H14C9.58172 32 6 28.4183 6 24V0Z" fill="white"/>
<path d="M23.8117 11.5156V20H22.2883L18.5617 14.6094H18.4914V20H16.7336V11.5156H18.2805L21.9836 16.9062H22.0656V11.5156H23.8117ZM24.9414 20V11.5156H30.6367V12.9688H26.6992V15.0312H30.3438V16.4844H26.6992V18.5469H30.6484V20H24.9414ZM33.6062 20L31.1805 11.5156H33.1023L34.532 17.4453H34.6023L36.1609 11.5156H37.8133L39.3719 17.457H39.4422L40.8719 11.5156H42.7937L40.368 20H38.6453L37.0281 14.3984H36.9578L35.3289 20H33.6062Z" fill="#303438"/>
</g>
<defs>
<filter id="filter0_d_3305_40170" x="0" y="-6" width="59" height="44" filterUnits="userSpaceOnUse" color-interpolation-filters="sRGB">
<feFlood flood-opacity="0" result="BackgroundImageFix"/>
<feColorMatrix in="SourceAlpha" type="matrix" values="0 0 0 0 0 0 0 0 0 0 0 0 0 0 0 0 0 0 127 0" result="hardAlpha"/>
<feOffset/>
<feGaussianBlur stdDeviation="3"/>
<feComposite in2="hardAlpha" operator="out"/>
<feColorMatrix type="matrix" values="0 0 0 0 0 0 0 0 0 0 0 0 0 0 0 0 0 0 0.08 0"/>
<feBlend mode="normal" in2="BackgroundImageFix" result="effect1_dropShadow_3305_40170"/>
<feBlend mode="normal" in="SourceGraphic" in2="effect1_dropShadow_3305_40170" result="shape"/>
</filter>
</defs>
</svg>
