<svg width="60" height="60" viewBox="0 0 60 60" fill="none" xmlns="http://www.w3.org/2000/svg">
<g opacity="0.4">
<circle cx="23.5" cy="27.5" r="21.5" fill="#B6BBC0"/>
<path d="M32.8243 20.6228C32.9599 20.1629 33.4411 19.8998 33.8995 20.0359C34.3578 20.1719 34.619 20.6549 34.4836 21.1148L32.5918 27.5333H35.1344C35.6124 27.5333 35.9998 27.9223 36 28.4018C36 28.8815 35.6125 29.2704 35.1344 29.2704H32.0796L30.094 36.0061C29.7081 37.315 27.8683 37.3368 27.4517 36.0375L25.2835 29.2704H21.7173L19.5483 36.0375C19.1317 37.3367 17.2928 37.3149 16.9068 36.0061L14.9213 29.2704H11.8656C11.3875 29.2704 11 28.8815 11 28.4018C11.0002 27.9223 11.3876 27.5333 11.8656 27.5333H14.409L12.5164 21.1148C12.3811 20.655 12.6424 20.172 13.1005 20.0359C13.5589 19.8998 14.0409 20.1628 14.1766 20.6228L16.2137 27.5333H20.4553L22.1839 22.1395L22.2262 22.0224C22.6912 20.8942 24.3088 20.8943 24.7738 22.0224L24.8161 22.1395L26.5447 27.5333H30.7872L32.8243 20.6228ZM18.2457 34.4276L19.8991 29.2704H16.7259L18.2457 34.4276ZM28.7534 34.4267L30.2749 29.2704H27.1017L28.7534 34.4267ZM22.2743 27.5333H24.7265L23.5 23.7061L22.2743 27.5333Z" fill="white"/>
<path d="M47.5037 57.5831L58.153 49.1833C59.2823 48.3452 59.2823 46.6548 58.153 45.8167L47.5037 37.4169C46.1201 36.39 44.1571 37.3774 44.1571 39.1002V42.1879H34.6211C33.1735 42.1879 32 43.3612 32 44.8085V50.1915C32 51.6388 33.1735 52.8121 34.6211 52.8121H44.1571V55.8998C44.1571 57.6226 46.1201 58.61 47.5037 57.5831Z" fill="#4F78FF"/>
</g>
</svg>
