<svg width="25" height="24" viewBox="0 0 25 24" fill="none" xmlns="http://www.w3.org/2000/svg">
<path d="M12.4669 3C11.4161 3 10.526 3.70107 10.2224 4.66924C10.1077 5.03532 10.4562 5.33019 10.826 5.25482C11.9092 5.03407 13.0245 5.03407 14.1077 5.25482C14.4776 5.33019 14.826 5.03532 14.7113 4.66924C14.4078 3.70107 13.5177 3 12.4669 3Z" fill="#003594"/>
<path d="M22.6666 16.0335C22.6666 13.0277 21.592 10.1451 19.6791 8.01965C17.7662 5.89424 15.1718 4.7002 12.4666 4.7002C9.76139 4.7002 7.16698 5.89424 5.25411 8.01965C3.34124 10.1451 2.2666 13.0277 2.2666 16.0335L12.4666 16.0335H22.6666Z" fill="#4F78FF"/>
<path d="M22.6667 15.4668H2.26667C1.01482 15.4668 0 16.4816 0 17.7335C0 18.9853 1.01482 20.0001 2.26667 20.0001H22.6667C23.9185 20.0001 24.9333 18.9853 24.9333 17.7335C24.9333 16.4816 23.9185 15.4668 22.6667 15.4668Z" fill="#8FA2FF"/>
</svg>
