<svg width="20" height="16" viewBox="0 0 20 16" fill="none" xmlns="http://www.w3.org/2000/svg">
<path fill-rule="evenodd" clip-rule="evenodd" d="M7.99523 0H12.0052C15.7852 0 17.6752 -1.19209e-07 18.8502 1.172C19.6602 1.978 19.9112 3.123 19.9902 4.989C20.0052 5.359 20.0132 5.545 19.9442 5.668C19.8742 5.791 19.5992 5.946 19.0472 6.254C18.7363 6.42734 18.4773 6.68058 18.297 6.98753C18.1167 7.29448 18.0216 7.64401 18.0216 8C18.0216 8.35599 18.1167 8.70552 18.297 9.01247C18.4773 9.31942 18.7363 9.57266 19.0472 9.746C19.5992 10.055 19.8752 10.209 19.9442 10.332C20.0132 10.455 20.0052 10.64 19.9892 11.01C19.9112 12.877 19.6592 14.022 18.8502 14.828C17.6762 16 15.7862 16 12.0052 16H7.99523C4.21523 16 2.32523 16 1.15023 14.828C0.340231 14.022 0.0892307 12.877 0.0102307 11.011C-0.00476933 10.641 -0.0127693 10.455 0.0562307 10.332C0.126231 10.209 0.401231 10.055 0.953231 9.746C1.26416 9.57266 1.52317 9.31942 1.70347 9.01247C1.88378 8.70552 1.97884 8.35599 1.97884 8C1.97884 7.64401 1.88378 7.29448 1.70347 6.98753C1.52317 6.68058 1.26416 6.42734 0.953231 6.254C0.401231 5.946 0.125231 5.791 0.0562307 5.668C-0.0127693 5.545 -0.00476941 5.36 0.0112306 4.989C0.0892306 3.123 0.341231 1.979 1.15023 1.172C2.32423 -1.19209e-07 4.21423 0 7.99523 0ZM13.5482 4.47C13.6887 4.61063 13.7676 4.80125 13.7676 5C13.7676 5.19875 13.6887 5.38937 13.5482 5.53L7.53323 11.53C7.39209 11.6706 7.20097 11.7496 7.00173 11.7496C6.80249 11.7496 6.61137 11.6706 6.47023 11.53C6.32978 11.3894 6.25089 11.1988 6.25089 11C6.25089 10.8012 6.32978 10.6106 6.47023 10.47L12.4852 4.47C12.6264 4.32937 12.8175 4.2504 13.0167 4.2504C13.216 4.2504 13.4071 4.32937 13.5482 4.47ZM12.5152 11.5C12.6503 11.506 12.7852 11.4847 12.9118 11.4371C13.0384 11.3896 13.1541 11.3169 13.2518 11.2235C13.3495 11.13 13.4273 11.0177 13.4804 10.8934C13.5336 10.769 13.561 10.6352 13.561 10.5C13.561 10.3648 13.5336 10.231 13.4804 10.1066C13.4273 9.98228 13.3495 9.87 13.2518 9.77654C13.1541 9.68309 13.0384 9.6104 12.9118 9.56288C12.7852 9.51535 12.6503 9.49396 12.5152 9.5C11.9612 9.5 11.5122 9.948 11.5122 10.5C11.5122 11.052 11.9622 11.5 12.5152 11.5ZM7.50223 6.5C8.05623 6.5 8.50523 6.052 8.50523 5.5C8.50523 4.948 8.05623 4.5 7.50223 4.5C7.36715 4.49396 7.23224 4.51535 7.10565 4.56288C6.97906 4.61041 6.86341 4.68309 6.76568 4.77654C6.66795 4.87 6.59017 4.98228 6.53703 5.10662C6.48389 5.23096 6.4565 5.36478 6.4565 5.5C6.4565 5.63522 6.48389 5.76904 6.53703 5.89338C6.59017 6.01772 6.66795 6.13 6.76568 6.22346C6.86341 6.31691 6.97906 6.38959 7.10565 6.43712C7.23224 6.48465 7.36715 6.50604 7.50223 6.5Z" fill="#7CC6FF"/>
</svg>
