<svg width="32" height="32" viewBox="0 0 32 32" fill="none" xmlns="http://www.w3.org/2000/svg">
<g clip-path="url(#clip0_2004_767)">
<path fill-rule="evenodd" clip-rule="evenodd" d="M0 0H60.8V2.4625H0V0ZM0 4.925H60.8V7.3875H0V4.925ZM0 9.84375H60.8V12.3125H0V9.84375ZM0 14.7688H60.8V17.2313H0V14.7688ZM0 19.6938H60.8V22.1562H0V19.6938ZM0 24.6125H60.8V27.075H0V24.6125ZM0 29.5375H60.8V32H0V29.5375Z" fill="#BD3D44"/>
<path fill-rule="evenodd" clip-rule="evenodd" d="M0 2.46252H60.8V4.92502H0V2.46252ZM0 7.38752H60.8V9.84377H0V7.38752ZM0 12.3063H60.8V14.7688H0V12.3063ZM0 17.2313H60.8V19.6875H0V17.2313ZM0 22.1563H60.8V24.6125H0V22.1563ZM0 27.075H60.8V29.5375H0V27.075Z" fill="white"/>
<path fill-rule="evenodd" clip-rule="evenodd" d="M0 0H24.3188V17.2313H0V0Z" fill="#192F5D"/>
<path fill-rule="evenodd" clip-rule="evenodd" d="M2.0187 0.737549L2.2687 1.42505H2.9562L2.38745 1.8438L2.6062 2.51255L2.0187 2.0938L1.47495 2.51255L1.69995 1.8438L1.1062 1.42505H1.8437L2.0187 0.737549ZM6.0812 0.737549L6.29995 1.42505H7.01245L6.42495 1.8438L6.67495 2.51255L6.0812 2.0938L5.48745 2.51255L5.73745 1.8438L5.1437 1.42505H5.8562L6.0812 0.737549ZM10.1437 0.737549L10.3625 1.42505H11.075L10.4875 1.8438L10.7375 2.51255L10.1437 2.0938L9.54995 2.51255L9.79995 1.8438L9.2062 1.42505H9.9187L10.1437 0.737549ZM14.1812 0.737549L14.425 1.42505H15.1125L14.55 1.8438L14.7687 2.51255L14.1812 2.0938L13.6125 2.51255L13.8312 1.8438L13.2437 1.42505H13.9812L14.1812 0.737549ZM18.2437 0.737549L18.4624 1.42505H19.1749L18.5874 1.8438L18.8312 2.51255L18.2124 2.0938L17.6499 2.51255L17.8687 1.8438L17.2812 1.42505H17.9937L18.2437 0.737549ZM22.3062 0.737549L22.5249 1.42505H23.2374L22.6437 1.8438L22.8937 2.51255L22.2999 2.0938L21.7124 2.51255L21.9624 1.8438L21.3687 1.42505H22.0812L22.3062 0.737549ZM4.0562 2.46255L4.2812 3.15005H4.99995L4.4062 3.5688L4.6562 4.2313L4.06245 3.81255L3.4687 4.2313L3.7187 3.5688L3.12495 3.15005H3.83745L4.0562 2.46255ZM8.09995 2.46255L8.34995 3.15005H9.03745L8.4687 3.5688L8.68745 4.2313L8.09995 3.81255L7.53745 4.2313L7.7562 3.5688L7.16245 3.15005H7.89995L8.09995 2.46255ZM12.1625 2.46255L12.3812 3.15005H13.0937L12.5062 3.5688L12.7562 4.2313L12.1625 3.81255L11.5687 4.2313L11.8187 3.5688L11.225 3.15005H11.9375L12.1625 2.46255ZM16.225 2.46255L16.4437 3.15005H17.1562L16.5687 3.5688L16.8125 4.2313L16.2187 3.81255L15.6312 4.2313L15.8812 3.5688L15.2875 3.15005H16L16.225 2.46255ZM20.2562 2.46255L20.5062 3.15005H21.1687L20.6062 3.5688L20.8249 4.2313L20.2312 3.81255L19.6687 4.2313L19.8875 3.5688L19.2999 3.15005H20.0374L20.2562 2.46255ZM2.0437 4.18755L2.23745 4.87505H2.9812L2.38745 5.2938L2.6062 5.9563L2.0187 5.53755L1.47495 5.9563L1.69995 5.2938L1.1062 4.87505H1.8437L2.0437 4.18755ZM6.0812 4.18755L6.29995 4.87505H7.01245L6.44995 5.2938L6.6687 5.9563L6.0812 5.53755L5.5187 5.9563L5.73745 5.2938L5.1437 4.87505H5.8562L6.0812 4.18755ZM10.1437 4.18755L10.3625 4.87505H11.075L10.4875 5.2938L10.7375 5.9563L10.1437 5.53755L9.54995 5.9563L9.79995 5.2938L9.2062 4.87505H9.9187L10.1437 4.18755ZM14.1812 4.18755L14.425 4.87505H15.1125L14.55 5.2938L14.7687 5.9563L14.1812 5.53755L13.6125 5.9563L13.8312 5.2938L13.25 4.87505H13.9875L14.1812 4.18755ZM18.2437 4.18755L18.4624 4.87505H19.1749L18.6124 5.2938L18.8312 5.9563L18.2374 5.53755L17.6749 5.9563L17.8937 5.2938L17.3124 4.87505H18.0249L18.2437 4.18755ZM22.3062 4.18755L22.5249 4.87505H23.2374L22.6437 5.2938L22.8937 5.9563L22.2999 5.53755L21.7124 5.9563L21.9624 5.2938L21.3687 4.87505H22.0812L22.3062 4.18755ZM4.0562 5.9063L4.2812 6.5938H4.99995L4.4062 7.01255L4.6562 7.6813L4.06245 7.26255L3.4687 7.6813L3.7187 7.01255L3.12495 6.60005H3.83745L4.0562 5.9063ZM8.09995 5.9063L8.34995 6.5938H9.03745L8.4687 7.01255L8.68745 7.68755L8.09995 7.2688L7.53745 7.68755L7.7562 7.0188L7.16245 6.6063H7.89995L8.09995 5.9063ZM12.1625 5.9063L12.3812 6.5938H13.0937L12.5312 7.01255L12.75 7.68755L12.1625 7.2688L11.5937 7.68755L11.8125 7.0188L11.225 6.6063H11.9375L12.1625 5.9063ZM16.225 5.9063L16.4437 6.5938H17.1562L16.5687 7.01255L16.8125 7.68755L16.2187 7.2688L15.6312 7.68755L15.8812 7.0188L15.2875 6.6063H16L16.225 5.9063ZM20.2562 5.9063L20.5062 6.5938H21.1687L20.6062 7.01255L20.8249 7.6813L20.2312 7.26255L19.6687 7.6813L19.8875 7.01255L19.2999 6.60005H20.0374L20.2562 5.9063ZM2.0437 7.6313L2.23745 8.3188H2.9812L2.38745 8.73755L2.6062 9.4063L2.0187 8.98755L1.47495 9.4063L1.69995 8.73755L1.1062 8.3188H1.8437L2.0437 7.6313ZM6.0812 7.6313L6.29995 8.3188H7.01245L6.44995 8.73755L6.6687 9.4063L6.0812 8.98755L5.5187 9.4063L5.73745 8.73755L5.1437 8.3188H5.8562L6.0812 7.6313ZM10.1437 7.6313L10.3625 8.3188H11.075L10.4875 8.73755L10.7375 9.4063L10.1437 8.98755L9.54995 9.4063L9.79995 8.73755L9.2062 8.3188H9.9187L10.1437 7.6313ZM14.1812 7.6313L14.425 8.3188H15.1125L14.55 8.73755L14.7687 9.4063L14.1812 8.98755L13.6125 9.4063L13.8312 8.73755L13.2437 8.3188H13.9812L14.1812 7.6313ZM18.2437 7.6313L18.4624 8.3188H19.1749L18.6124 8.73755L18.8312 9.4063L18.2374 8.98755L17.6749 9.4063L17.8937 8.73755L17.3062 8.3188H18.0187L18.2437 7.6313ZM22.3062 7.6313L22.5249 8.3188H23.2374L22.6437 8.73755L22.8937 9.4063L22.2999 8.98755L21.7124 9.4063L21.9624 8.73755L21.3687 8.3188H22.0812L22.3062 7.6313ZM4.0562 9.3563L4.2812 10.0438H4.99995L4.4062 10.4625L4.6562 11.125L4.06245 10.7063L3.4687 11.125L3.7187 10.4625L3.12495 10.0438H3.83745L4.0562 9.3563ZM8.09995 9.3563L8.34995 10.0438H9.03745L8.4687 10.4625L8.68745 11.125L8.09995 10.7063L7.53745 11.125L7.7562 10.4625L7.16245 10.0438H7.89995L8.09995 9.3563ZM12.1625 9.3563L12.3812 10.0438H13.0937L12.5312 10.4625L12.75 11.125L12.1625 10.7063L11.5937 11.125L11.8125 10.4625L11.225 10.0438H11.9375L12.1625 9.3563ZM16.225 9.3563L16.4437 10.0438H17.1562L16.5687 10.4625L16.8125 11.125L16.2187 10.7063L15.6312 11.125L15.8812 10.4625L15.2875 10.0438H16L16.225 9.3563ZM20.2562 9.3563L20.5062 10.0438H21.1687L20.6062 10.4625L20.8249 11.125L20.2312 10.7063L19.6687 11.125L19.8875 10.4625L19.2999 10.0438H20.0374L20.2562 9.3563ZM2.0437 11.075L2.23745 11.7625H2.9812L2.38745 12.1875L2.6062 12.85L2.0187 12.4313L1.47495 12.85L1.69995 12.1875L1.1062 11.7688H1.8437L2.0437 11.075ZM6.0812 11.075L6.29995 11.7625H7.01245L6.44995 12.1875L6.6687 12.85L6.0812 12.4313L5.5187 12.85L5.73745 12.1875L5.1437 11.7688H5.8562L6.0812 11.075ZM10.1437 11.075L10.3625 11.7625H11.075L10.4875 12.1875L10.7375 12.85L10.1437 12.4313L9.54995 12.85L9.79995 12.1875L9.2062 11.7688H9.9187L10.1437 11.075ZM14.1812 11.075L14.425 11.7625H15.1125L14.55 12.1875L14.7687 12.85L14.1812 12.4313L13.6125 12.85L13.8312 12.1875L13.2437 11.7688H13.9812L14.1812 11.075ZM18.2437 11.075L18.4624 11.7625H19.1749L18.6124 12.1875L18.8312 12.85L18.2374 12.4313L17.6749 12.85L17.8937 12.1875L17.3062 11.7688H18.0187L18.2437 11.075ZM22.3062 11.075L22.5249 11.7625H23.2374L22.6437 12.1875L22.8937 12.85L22.2999 12.4313L21.7124 12.85L21.9624 12.1875L21.3687 11.7688H22.0812L22.3062 11.075ZM4.0562 12.8L4.2812 13.4875H4.99995L4.4062 13.9063L4.6562 14.575L4.06245 14.1563L3.4687 14.575L3.7187 13.9063L3.12495 13.4875H3.83745L4.0562 12.8ZM8.09995 12.8L8.34995 13.4875H9.03745L8.4687 13.9063L8.68745 14.575L8.09995 14.1563L7.53745 14.575L7.7562 13.9063L7.16245 13.4875H7.89995L8.09995 12.8ZM12.1625 12.8L12.3812 13.4875H13.0937L12.5312 13.9063L12.75 14.575L12.1625 14.1563L11.5937 14.575L11.8125 13.9063L11.225 13.4875H11.9375L12.1625 12.8ZM16.225 12.8L16.4437 13.4875H17.1562L16.5687 13.9063L16.8125 14.575L16.2187 14.1563L15.6312 14.575L15.8812 13.9063L15.2875 13.4875H16L16.225 12.8ZM20.2562 12.8L20.5062 13.4875H21.1687L20.6062 13.9063L20.8249 14.575L20.2312 14.1563L19.6687 14.575L19.8875 13.9063L19.2999 13.4875H20.0374L20.2562 12.8ZM2.0437 14.525L2.23745 15.2125H2.9812L2.38745 15.6313L2.6062 16.2938L2.0187 15.875L1.47495 16.2938L1.69995 15.6313L1.1062 15.2125H1.8437L2.0437 14.525ZM6.0812 14.525L6.29995 15.2125H7.01245L6.44995 15.6313L6.6687 16.2938L6.0812 15.875L5.5187 16.2938L5.73745 15.6313L5.1437 15.2125H5.8562L6.0812 14.525ZM10.1437 14.525L10.3625 15.2125H11.075L10.4875 15.6313L10.7375 16.2938L10.1437 15.875L9.54995 16.2938L9.79995 15.6313L9.2062 15.2125H9.9187L10.1437 14.525ZM14.1812 14.525L14.425 15.2125H15.1125L14.55 15.6313L14.7687 16.2938L14.1812 15.875L13.6125 16.2938L13.8312 15.6313L13.2437 15.2125H13.9812L14.1812 14.525ZM18.2437 14.525L18.4624 15.2125H19.1749L18.6124 15.6313L18.8312 16.2938L18.2374 15.875L17.6749 16.2938L17.8937 15.6313L17.3062 15.2125H18.0187L18.2437 14.525ZM22.3062 14.525L22.5249 15.2125H23.2374L22.6437 15.6313L22.8937 16.2938L22.2999 15.875L21.7124 16.2938L21.9624 15.6313L21.3687 15.2125H22.0812L22.3062 14.525Z" fill="white"/>
</g>
<defs>
<clipPath id="clip0_2004_767">
<rect width="32" height="32" rx="16" fill="white"/>
</clipPath>
</defs>
</svg>
